<svg xmlns="http://www.w3.org/2000/svg" viewBox="0 0 64 64"><path d="M50.6 32.5l-0.3-0.2c-0.6 0.6-1.1 1.2-1.7 1.8 -2.4-0.2-4.9-0.3-7.3-0.5l-8.7-0.4c0.1-1.9 0.2-3.9 0.4-5.8l0.5-9.1c0.1-3 0.5-6.1 0.3-9.1 -0.2-3-0.5-6.1-1.3-9.1h-0.3c-0.8 3-1.1 6.1-1.4 9.1 -0.2 3 0.2 6.1 0.3 9.1l0.5 9.1c0.1 1.9 0.2 3.8 0.4 5.8C29 33 26 32.7 23.1 32.9c-1.9 0.1-3.8 0.3-5.7 0.6 0.2-2.8 0.5-5.5 0.3-8.3 -0.2-3-0.5-6.1-1.4-9.1H16c-0.8 3-1.1 6.1-1.3 9.1 -0.2 2.9 0.1 5.8 0.3 8.8 -0.3 0.1-0.6 0.1-0.9 0.2v0.3c0.3 0.1 0.6 0.1 1 0.2l0.4 8.8c0.2 3 0.4 6.1 0.6 9.1h0.3c0.2-3 0.4-6.1 0.6-9.1l0.4-8.3c1.9 0.3 3.9 0.5 5.8 0.7 3 0.2 5.9-0.2 8.9-0.3 0 0.3 0 0.6 0.1 0.9h0.3c0-0.3 0-0.6 0.1-0.9l8.9-0.4c2.3-0.2 4.6-0.3 6.9-0.4 -1.3 1.6-2.5 3.2-3.6 4.9 -1.7 2.5-2.9 5.4-4.3 8.1l-4.2 8.1c-1.3 2.7-2.7 5.4-4 8.2l0.3 0.2c1.7-2.5 3.4-5.1 5.1-7.6l5-7.7c1.6-2.6 3.5-5 4.8-7.8 1-2.1 2-4.2 2.8-6.5 0.2 0 0.3 0 0.5 0v-0.3c-0.1 0-0.3 0-0.4 0C50.3 33.6 50.5 33.1 50.6 32.5z"/></svg>