<?xml version="1.0" encoding="utf-8"?>
<!-- Generator: Adobe Illustrator 21.1.0, SVG Export Plug-In . SVG Version: 6.00 Build 0)  -->
<svg version="1.1" id="Layer_1" xmlns="http://www.w3.org/2000/svg" xmlns:xlink="http://www.w3.org/1999/xlink" x="0px" y="0px"
	 viewBox="0 0 64 64" style="enable-background:new 0 0 64 64;" xml:space="preserve">
<g>
	<path d="M46.9,32.2c-0.5,0.4-1,0.9-1.4,1.4c-1.9-0.2-3.9-0.3-5.8-0.5c-2.3-0.2-4.7-0.3-7-0.4c0.1-1.5,0.2-3,0.4-4.5
		c0.2-2.5,0.3-4.9,0.5-7.4c0.1-2.5,0.5-4.9,0.3-7.4c-0.2-2.5-0.5-4.9-1.3-7.4h-0.3c-0.8,2.5-1.1,4.9-1.4,7.4
		c-0.2,2.5,0.2,4.9,0.3,7.4c0.1,2.5,0.3,4.9,0.5,7.4c0.1,1.5,0.2,3,0.3,4.5c-2.3-0.1-4.7-0.5-7-0.3c-1.5,0.1-2.9,0.3-4.4,0.6
		c0.2-2.2,0.4-4.3,0.2-6.5c-0.2-2.5-0.5-4.9-1.3-7.4H19c-0.8,2.5-1.1,4.9-1.4,7.4c-0.2,2.4,0.1,4.7,0.3,7.1
		c-0.2,0.1-0.3,0.1-0.5,0.1v0.3c0.2,0.1,0.4,0.1,0.6,0.2c0.1,2.4,0.3,4.7,0.4,7.1c0.2,2.5,0.4,4.9,0.6,7.4h0.3
		c0.2-2.5,0.4-4.9,0.6-7.4c0.2-2.2,0.3-4.3,0.4-6.5c1.5,0.3,3,0.5,4.5,0.6c2.4,0.2,4.8-0.1,7.2-0.3c0,0.2,0,0.3,0,0.5h0.3
		c0-0.2,0-0.4,0-0.5c2.4-0.1,4.8-0.3,7.2-0.4c1.8-0.1,3.5-0.3,5.3-0.4c-1.1,1.2-2,2.5-2.9,3.7c-1.4,2-2.3,4.4-3.4,6.6
		c-1.1,2.2-2.2,4.4-3.3,6.6c-1.1,2.2-2.2,4.5-3.2,6.7l0.3,0.2c1.4-2,2.8-4.1,4.2-6.1c1.4-2.1,2.8-4.1,4.1-6.2c1.3-2.1,2.9-4,4-6.3
		c0.8-1.7,1.6-3.5,2.1-5.4c0.1,0,0.2,0,0.3,0v-0.3c-0.1,0-0.1,0-0.2,0c0.1-0.4,0.2-0.9,0.3-1.4L46.9,32.2z"/>
	<path d="M62,3.9l-1.7,0c-0.1-0.6-0.1-1.2-0.2-1.9h-0.2c-0.1,0.6-0.1,1.2-0.2,1.8L47,3.5L32,3.2C27,3.1,22,2.9,17,3
		C12.8,3.1,8.5,3.3,4.3,3.7C4.2,3.1,4.2,2.6,4.1,2H3.9C3.8,2.6,3.8,3.2,3.7,3.7C3.2,3.8,2.6,3.8,2,3.9v0.2c0.6,0.1,1.1,0.1,1.7,0.2
		C3.3,8.5,3.1,12.8,3,17c-0.1,5,0.1,10,0.2,15l0.3,15l0.3,12.7c-0.6,0.1-1.2,0.1-1.8,0.2v0.2c0.6,0.1,1.2,0.1,1.9,0.2l0,1.7h0.2
		l0-1.7c4.3,0.4,8.6,0.6,12.9,0.7c5,0.1,10-0.1,15-0.2l15-0.3l12.9-0.3l0,1.8h0.2l0-1.9l1.9,0v-0.2l-1.8,0L60.5,47l0.3-15
		c0.1-5,0.3-10,0.2-15c-0.1-4.3-0.3-8.6-0.7-12.9l1.7,0V3.9z M59.2,32l0.3,15l0.3,12.8L47,59.5l-15-0.3c-5-0.1-10-0.3-15-0.2
		c-4.3,0.1-8.6,0.3-12.8,0.7L4.5,47l0.3-15C4.9,27,5.1,22,5,17C4.9,12.8,4.7,8.5,4.3,4.3C8.5,4.7,12.8,4.9,17,5c5,0.1,10-0.1,15-0.2
		l15-0.3l12.7-0.3C59.3,8.4,59.1,12.7,59,17C58.9,22,59.1,27,59.2,32z"/>
</g>
</svg>
